<?xml version="1.0" standalone="no"?>
<!DOCTYPE svg PUBLIC "-//W3C//DTD SVG 20010904//EN"
 "http://www.w3.org/TR/2001/REC-SVG-20010904/DTD/svg10.dtd">
<svg version="1.0" xmlns="http://www.w3.org/2000/svg"
 width="360.000000pt" height="360.000000pt" viewBox="0 0 360.000000 360.000000"
 preserveAspectRatio="xMidYMid meet">

<g transform="translate(0.000000,360.000000) scale(0.100000,-0.100000)"
fill="#000000" stroke="none">
<path d="M1675 2619 c-181 -26 -371 -129 -497 -269 -53 -58 -140 -194 -153
-237 -6 -23 -5 -23 77 -23 l84 0 18 38 c30 63 101 156 165 215 117 108 262
174 430 197 262 35 561 -99 707 -318 49 -73 61 -86 39 -42 -33 67 -104 158
-174 222 -191 177 -440 254 -696 217z"/>
<path d="M1745 2483 c-55 -11 -172 -58 -228 -90 -73 -43 -212 -180 -246 -243
-28 -52 -21 -47 38 33 53 70 124 128 212 172 98 50 177 68 299 67 118 0 222
-27 317 -82 68 -39 161 -126 208 -195 l38 -55 69 0 c37 0 68 2 68 5 0 15 -44
86 -84 137 -88 111 -245 209 -386 242 -60 15 -254 20 -305 9z"/>
<path d="M933 1998 c-13 -15 -42 -95 -77 -215 -31 -106 -56 -194 -56 -198 0
-3 33 -5 73 -5 l73 0 23 98 c14 53 27 103 31 111 5 8 27 -19 65 -80 67 -109
87 -129 125 -129 48 0 57 9 121 111 33 54 64 101 69 104 5 3 16 -27 25 -67 9
-40 20 -90 26 -110 l10 -38 75 0 c68 0 75 2 70 17 -4 9 -30 98 -59 198 -55
194 -73 225 -125 225 -41 0 -61 -20 -127 -130 -32 -52 -63 -103 -70 -113 -11
-16 -21 -4 -85 100 -40 64 -80 123 -89 130 -26 20 -75 16 -98 -9z"/>
<path d="M1721 2008 c-129 -37 -152 -172 -38 -227 38 -18 61 -21 193 -21 158
0 194 -9 181 -44 -6 -14 -28 -16 -181 -16 l-176 0 -40 -51 c-22 -28 -40 -55
-40 -61 0 -6 81 -8 228 -6 250 3 264 6 316 68 51 61 26 158 -50 196 -32 15
-68 20 -193 24 -111 4 -156 9 -159 18 -3 9 34 12 162 12 l165 0 41 53 c22 30
40 57 40 60 0 11 -411 6 -449 -5z"/>
<path d="M2276 1966 c-25 -29 -46 -56 -46 -60 0 -3 92 -6 204 -6 203 0 235 -5
207 -33 -8 -8 -77 -13 -211 -15 l-200 -3 0 -136 0 -135 218 4 c203 3 220 4
264 26 80 40 110 109 72 167 -14 22 -14 26 0 47 9 12 16 39 16 60 0 29 -7 45
-35 72 -53 53 -111 66 -291 66 l-152 0 -46 -54z m379 -246 c0 -13 -24 -15
-147 -18 -144 -2 -148 -2 -148 18 0 20 4 20 148 18 123 -3 147 -5 147 -18z"/>
<path d="M1025 1488 c4 -13 28 -58 53 -102 240 -404 765 -535 1161 -289 119
74 245 205 300 311 20 38 6 24 -34 -33 -150 -218 -444 -350 -704 -315 -169 22
-314 89 -432 197 -64 59 -135 152 -165 216 l-18 37 -84 0 c-82 0 -83 0 -77
-22z"/>
<path d="M2345 1455 c-47 -69 -140 -156 -208 -195 -29 -17 -88 -42 -132 -56
-101 -33 -254 -37 -354 -10 -141 38 -282 133 -355 239 -46 67 -57 74 -24 15
38 -68 159 -189 235 -234 123 -74 200 -96 343 -101 142 -6 218 8 326 57 81 36
177 104 228 160 39 44 116 157 116 172 0 4 -31 8 -68 8 l-69 0 -38 -55z"/>
</g>
</svg>
